<?xml version="1.0" standalone="no"?>
<!DOCTYPE svg PUBLIC "-//W3C//DTD SVG 20010904//EN"
 "http://www.w3.org/TR/2001/REC-SVG-20010904/DTD/svg10.dtd">
<svg version="1.0" xmlns="http://www.w3.org/2000/svg"
 width="512.000000pt" height="533.000000pt" viewBox="0 0 512.000000 533.000000"
 preserveAspectRatio="xMidYMid meet">

<g transform="translate(0.000000,533.000000) scale(0.100000,-0.100000)"
fill="#000000" stroke="none">
<path d="M1220 3905 l0 -1425 -606 0 c-389 0 -604 -3 -602 -10 2 -5 565 -563
1252 -1240 l1249 -1231 56 55 c31 30 614 584 1296 1231 682 647 1242 1180
1243 1186 2 5 -256 9 -672 9 l-676 0 0 1425 0 1425 -1270 0 -1270 0 0 -1425z
m2410 -130 l0 -1425 581 -2 581 -3 -1137 -1080 c-626 -594 -1140 -1079 -1142
-1078 -3 0 -497 486 -1100 1080 l-1095 1078 516 3 516 2 0 1425 0 1425 1140 0
1140 0 0 -1425z"/>
</g>
</svg>
